<?xml version="1.0" encoding="utf-8"?>
<!-- Generator: Adobe Illustrator 26.1.0, SVG Export Plug-In . SVG Version: 6.00 Build 0)  -->
<svg version="1.1" id="Calque_1" xmlns="http://www.w3.org/2000/svg" xmlns:xlink="http://www.w3.org/1999/xlink" x="0px" y="0px"
	 viewBox="0 0 350 326.3" style="enable-background:new 0 0 350 326.3;" xml:space="preserve">
<style type="text/css">
	.st0{fill:#168DFF;}
	.st1{enable-background:new    ;}
	.st2{fill:#FFF9E0;}
	.st3{fill:none;}
</style>
<g id="Groupe_71" transform="translate(-832 -2578.612)">
	<g id="Groupe_8" transform="translate(1065 5123.873)">
		<g id="Groupe_6" transform="translate(0 0)">
			<path id="Tracé_137" class="st0" d="M-190.5-2486.6l6.9-47.8H44.7l7.1,47.8h12l-9.6-58.7h-247.3l-9.4,58.7H-190.5z"/>
			<path id="Tracé_138" class="st0" d="M74.3-2335.6l5.1,34l-148.3,69.7l-148.5-69.7l4.9-34l-14.6,3l-5.9,37l164.2,76.6L95-2295.6
				l-6.1-37L74.3-2335.6z"/>
		</g>
		<path id="Tracé_139" class="st0" d="M-132.1-2280.7l63,27.6l62.9-27.6"/>
	</g>
	<g class="st1">
		<path class="st0" d="M970,2631.6c0-0.4-0.2-0.6-0.7-0.6h-2.7c-2.9,0-3.8-1.4-3.8-3.5v-3.7c0-2.1,1.1-3.5,4.1-3.5h3.8
			c3,0,4.1,1.4,4.1,3.5v2.2h-4.9v-1.5c0-0.4-0.2-0.6-0.7-0.6h-0.8c-0.5,0-0.7,0.2-0.7,0.6v2.7c0,0.4,0.2,0.6,0.7,0.6h2.6
			c2.9,0,3.8,1.3,3.8,3.4v3.7c0,2.1-1.1,3.5-4.1,3.5h-3.8c-3,0-4.1-1.4-4.1-3.5v-2.2h4.9v1.5c0,0.4,0.2,0.6,0.7,0.6h0.8
			c0.5,0,0.7-0.2,0.7-0.6L970,2631.6L970,2631.6z"/>
		<path class="st0" d="M987.7,2623.8h-3.5v14.5h-4.9v-14.5h-3.4v-3.5h11.8V2623.8z"/>
		<path class="st0" d="M997.6,2635.6h-4.3l-0.6,2.7h-4.8l4.6-18h6l4.6,18h-4.9L997.6,2635.6z M996.8,2632.2l-1.4-6.5l-1.4,6.5H996.8
			z"/>
		<path class="st0" d="M1015,2623.8h-3.5v14.5h-4.9v-14.5h-3.4v-3.5h11.8V2623.8z"/>
		<path class="st0" d="M1023.2,2631.6c0-0.4-0.2-0.6-0.7-0.6h-2.7c-2.9,0-3.8-1.4-3.8-3.5v-3.7c0-2.1,1.1-3.5,4.1-3.5h3.8
			c3,0,4.1,1.4,4.1,3.5v2.2h-4.9v-1.5c0-0.4-0.2-0.6-0.7-0.6h-0.8c-0.5,0-0.7,0.2-0.7,0.6v2.7c0,0.4,0.2,0.6,0.7,0.6h2.6
			c2.9,0,3.8,1.3,3.8,3.4v3.7c0,2.1-1.1,3.5-4.1,3.5h-3.8c-3,0-4.1-1.4-4.1-3.5v-2.2h4.9v1.5c0,0.4,0.2,0.6,0.7,0.6h0.8
			c0.5,0,0.7-0.2,0.7-0.6L1023.2,2631.6L1023.2,2631.6z"/>
	</g>
	<g>
		<g>
			<path class="st2" d="M910,2715.5h54.9v16.4H910V2715.5z M945.9,2697.5v52.3h-17v-52.3H945.9z"/>
			<path class="st2" d="M1005.5,2673.2v93.7h-17.7v-73l-11.4,4.3v-18.8l14-6.3H1005.5z"/>
			<path class="st2" d="M1052.3,2767.8c-9.3,0-16.3-2.4-21-7.2c-4.7-4.8-7-11.3-7-19.4v-42.6c0-8.3,2.4-14.8,7.1-19.5
				c4.7-4.7,11.7-7.1,20.9-7.1c9.3,0,16.3,2.4,21,7.1s7.1,11.2,7.1,19.6v42.6c0,8.3-2.4,14.8-7.1,19.5
				C1068.5,2765.5,1061.5,2767.8,1052.3,2767.8z M1052.3,2750.8c3.7,0,6.3-1.3,8-3.8s2.4-6,2.4-10.3v-33.6c0-4.4-0.8-7.9-2.4-10.4
				c-1.6-2.5-4.3-3.7-8-3.7c-3.7,0-6.3,1.2-7.9,3.7c-1.6,2.5-2.4,6-2.4,10.4v33.6c0,4.4,0.8,7.8,2.4,10.3
				C1046,2749.6,1048.6,2750.8,1052.3,2750.8z"/>
		</g>
	</g>
	<rect x="898" y="2804.4" class="st3" width="178.8" height="26.4"/>
	<g>
		<g>
			<path class="st2" d="M949.8,2830.8l7.9-20.6h2.5l7.9,20.6h-4.2l-4.9-14.1l-4.9,14.1H949.8z M953.6,2827.5v-3.7h10.8v3.7H953.6z"
				/>
			<path class="st2" d="M970.3,2830.8v-14.7h4.2v14.7H970.3z M978.5,2820.2c-0.2-0.2-0.4-0.3-0.7-0.4c-0.3-0.1-0.6-0.1-1-0.1
				c-0.8,0-1.4,0.3-1.8,0.8c-0.4,0.5-0.6,1.2-0.6,2.1l-0.3-3.8c0.4-0.9,0.9-1.5,1.6-2c0.6-0.5,1.4-0.7,2.1-0.7
				c0.6,0,1.2,0.1,1.7,0.3c0.5,0.2,0.9,0.5,1.3,0.9L978.5,2820.2z"/>
			<path class="st2" d="M981.5,2819.4v-3.3h7.2v3.3H981.5z M986.7,2830.9c-1.3,0-2.3-0.3-2.8-1c-0.6-0.7-0.9-1.6-0.9-2.9v-15.2h3.9
				v14.2c0,0.3,0.1,0.6,0.2,0.8s0.3,0.3,0.6,0.3h1v3.7H986.7z"/>
			<path class="st2" d="M991.9,2814.1v-3.9h3.9v3.9H991.9z M991.9,2830.8v-14.7h3.9v14.7H991.9z"/>
			<path class="st2" d="M1005.6,2831c-2.1,0-3.7-0.6-4.9-1.8s-1.7-2.9-1.7-5v-1.6c0-2.1,0.6-3.8,1.7-5c1.2-1.2,2.8-1.8,4.9-1.8
				c1.2,0,2.3,0.2,3.3,0.6c1,0.4,1.8,1,2.3,1.7l-2.5,2.4c-0.3-0.3-0.8-0.6-1.3-0.8c-0.5-0.2-1-0.3-1.5-0.3c-1,0-1.7,0.3-2.3,0.8
				c-0.5,0.5-0.8,1.3-0.8,2.2v1.6c0,1,0.3,1.7,0.8,2.3s1.3,0.8,2.3,0.8c0.5,0,1-0.1,1.5-0.3c0.5-0.2,0.9-0.5,1.3-0.8l2.5,2.6
				c-0.6,0.7-1.4,1.3-2.3,1.7C1007.9,2830.8,1006.8,2831,1005.6,2831z"/>
			<path class="st2" d="M1017.7,2810.2v15.7c0,0.3,0.1,0.6,0.3,0.8s0.5,0.3,0.9,0.3h0.7v3.7h-2c-1.2,0-2.1-0.3-2.7-1s-1-1.6-1-2.9
				v-16.7H1017.7z"/>
			<path class="st2" d="M1028.5,2831c-2.1,0-3.8-0.6-5-1.7c-1.2-1.1-1.8-2.8-1.8-4.9v-1.7c0-2.2,0.6-3.9,1.7-5.1
				c1.1-1.2,2.7-1.8,4.8-1.8c1.9,0,3.4,0.7,4.5,2.1c1.1,1.4,1.6,3.4,1.6,6v1h-10.1v-2.6h6.5l0-0.3c-0.1-0.8-0.4-1.5-0.8-2
				c-0.4-0.5-1-0.7-1.7-0.7c-0.9,0-1.7,0.3-2.2,0.8c-0.5,0.6-0.8,1.3-0.8,2.4v1.9c0,1,0.3,1.8,0.8,2.3c0.6,0.5,1.3,0.8,2.4,0.8
				c0.5,0,1-0.1,1.5-0.3c0.5-0.2,1-0.4,1.4-0.8l2.5,2.3c-0.8,0.7-1.6,1.2-2.6,1.6C1030.5,2830.8,1029.5,2831,1028.5,2831z"/>
			<path class="st2" d="M1043.4,2831c-1.3,0-2.6-0.2-3.8-0.5c-1.2-0.4-2.2-0.8-3.1-1.5l2.4-3c0.7,0.5,1.4,0.8,2.2,1
				c0.8,0.2,1.5,0.4,2.2,0.4c0.9,0,1.6-0.1,2.1-0.3c0.5-0.2,0.8-0.5,0.8-0.8c0-0.4-0.2-0.7-0.5-0.9c-0.3-0.2-0.8-0.3-1.4-0.3
				c-0.6-0.1-1.1-0.1-1.8-0.2c-0.6-0.1-1.3-0.2-1.9-0.3c-0.6-0.1-1.2-0.3-1.7-0.6c-0.5-0.3-0.9-0.7-1.2-1.2
				c-0.3-0.5-0.5-1.3-0.5-2.2c0-1.5,0.5-2.6,1.6-3.4c1-0.8,2.5-1.2,4.4-1.2c1.1,0,2.2,0.2,3.3,0.5c1.1,0.3,2.1,0.8,2.9,1.4l-2.3,2.8
				c-0.6-0.4-1.3-0.6-2-0.8c-0.7-0.2-1.4-0.3-2-0.3c-0.8,0-1.4,0.1-1.8,0.3c-0.4,0.2-0.7,0.4-0.7,0.8c0,0.3,0.2,0.5,0.5,0.6
				c0.3,0.1,0.7,0.2,1.2,0.3c0.5,0.1,1,0.1,1.6,0.2c0.7,0.1,1.3,0.2,2,0.3c0.7,0.1,1.3,0.3,1.8,0.6c0.6,0.3,1,0.7,1.3,1.3
				c0.3,0.6,0.5,1.4,0.5,2.4c0,1.5-0.5,2.7-1.6,3.6C1046.9,2830.6,1045.4,2831,1043.4,2831z"/>
		</g>
	</g>
</g>
</svg>
