<?xml version="1.0" encoding="utf-8"?>
<!-- Generator: Adobe Illustrator 26.1.0, SVG Export Plug-In . SVG Version: 6.00 Build 0)  -->
<svg version="1.1" id="Calque_1" xmlns="http://www.w3.org/2000/svg" xmlns:xlink="http://www.w3.org/1999/xlink" x="0px" y="0px"
	 viewBox="0 0 350 326.3" style="enable-background:new 0 0 350 326.3;" xml:space="preserve">
<style type="text/css">
	.st0{fill:#168DFF;}
	.st1{enable-background:new    ;}
	.st2{fill:#FFF9E0;}
	.st3{fill:none;}
</style>
<g id="Groupe_71" transform="translate(-832 -2578.612)">
	<g id="Groupe_8" transform="translate(1065 5123.873)">
		<g id="Groupe_6" transform="translate(0 0)">
			<path id="Tracé_137" class="st0" d="M-190.5-2486.6l6.9-47.8H44.7l7.1,47.8h12l-9.6-58.7h-247.3l-9.4,58.7H-190.5z"/>
			<path id="Tracé_138" class="st0" d="M74.3-2335.6l5.1,34l-148.3,69.7l-148.5-69.7l4.9-34l-14.6,3l-5.9,37l164.2,76.6L95-2295.6
				l-6.1-37L74.3-2335.6z"/>
		</g>
		<path id="Tracé_139" class="st0" d="M-132.1-2280.7l63,27.6l62.9-27.6"/>
	</g>
	<g class="st1">
		<path class="st0" d="M970,2631.6c0-0.4-0.2-0.6-0.7-0.6h-2.7c-2.9,0-3.8-1.4-3.8-3.5v-3.7c0-2.1,1.1-3.5,4.1-3.5h3.8
			c3,0,4.1,1.4,4.1,3.5v2.2h-4.9v-1.5c0-0.4-0.2-0.6-0.7-0.6h-0.8c-0.5,0-0.7,0.2-0.7,0.6v2.7c0,0.4,0.2,0.6,0.7,0.6h2.6
			c2.9,0,3.8,1.3,3.8,3.4v3.7c0,2.1-1.1,3.5-4.1,3.5h-3.8c-3,0-4.1-1.4-4.1-3.5v-2.2h4.9v1.5c0,0.4,0.2,0.6,0.7,0.6h0.8
			c0.5,0,0.7-0.2,0.7-0.6L970,2631.6L970,2631.6z"/>
		<path class="st0" d="M987.7,2623.8h-3.5v14.5h-4.9v-14.5h-3.4v-3.5h11.8V2623.8z"/>
		<path class="st0" d="M997.6,2635.6h-4.3l-0.6,2.7h-4.8l4.6-18h6l4.6,18h-4.9L997.6,2635.6z M996.8,2632.2l-1.4-6.5l-1.4,6.5H996.8
			z"/>
		<path class="st0" d="M1015,2623.8h-3.5v14.5h-4.9v-14.5h-3.4v-3.5h11.8V2623.8z"/>
		<path class="st0" d="M1023.2,2631.6c0-0.4-0.2-0.6-0.7-0.6h-2.7c-2.9,0-3.8-1.4-3.8-3.5v-3.7c0-2.1,1.1-3.5,4.1-3.5h3.8
			c3,0,4.1,1.4,4.1,3.5v2.2h-4.9v-1.5c0-0.4-0.2-0.6-0.7-0.6h-0.8c-0.5,0-0.7,0.2-0.7,0.6v2.7c0,0.4,0.2,0.6,0.7,0.6h2.6
			c2.9,0,3.8,1.3,3.8,3.4v3.7c0,2.1-1.1,3.5-4.1,3.5h-3.8c-3,0-4.1-1.4-4.1-3.5v-2.2h4.9v1.5c0,0.4,0.2,0.6,0.7,0.6h0.8
			c0.5,0,0.7-0.2,0.7-0.6L1023.2,2631.6L1023.2,2631.6z"/>
	</g>
	<g>
		<g>
			<path class="st2" d="M935.1,2715.5H990v16.4h-54.9V2715.5z M971.1,2697.5v52.3h-17v-52.3H971.1z"/>
			<path class="st2" d="M1056.5,2673.2v11.7l-21,82h-19.1l20.4-76.7h-16.1v14.1h-17.7v-31.1H1056.5z"/>
		</g>
	</g>
	<rect x="898" y="2804.4" class="st3" width="178.8" height="26.4"/>
	<g>
		<g>
			<path class="st2" d="M886.2,2810.2l-6.1,12.6v7.9h-3.9v-7.9l-6.1-12.6h4.1l3.9,8.9l3.9-8.9H886.2z"/>
			<path class="st2" d="M893.7,2831c-2.1,0-3.8-0.6-5-1.7c-1.2-1.1-1.8-2.8-1.8-4.9v-1.7c0-2.2,0.6-3.9,1.7-5.1
				c1.1-1.2,2.7-1.8,4.8-1.8c1.9,0,3.4,0.7,4.5,2.1c1.1,1.4,1.6,3.4,1.6,6v1h-10.1v-2.6h6.5l0-0.3c-0.1-0.8-0.4-1.5-0.8-2
				c-0.4-0.5-1-0.7-1.7-0.7c-0.9,0-1.7,0.3-2.2,0.8c-0.5,0.6-0.8,1.3-0.8,2.4v1.9c0,1,0.3,1.8,0.8,2.3c0.6,0.5,1.3,0.8,2.4,0.8
				c0.5,0,1-0.1,1.5-0.3c0.5-0.2,1-0.4,1.4-0.8l2.5,2.3c-0.8,0.7-1.6,1.2-2.6,1.6C895.7,2830.8,894.7,2831,893.7,2831z"/>
			<path class="st2" d="M907,2831c-1.6,0-2.7-0.4-3.5-1.1c-0.8-0.7-1.2-1.9-1.2-3.4c0-1.5,0.4-2.6,1.3-3.3c0.9-0.7,2.2-1.1,3.9-1.1
				h3.7l0.2,3h-3.9c-0.6,0-1,0.1-1.3,0.3c-0.3,0.2-0.4,0.6-0.4,1.1c0,0.5,0.2,0.8,0.6,1.1c0.4,0.2,0.9,0.3,1.7,0.3
				c1,0,1.8-0.1,2.3-0.4c0.5-0.2,0.8-0.6,0.8-1.1l0.3,2.1c-0.1,0.6-0.3,1-0.8,1.4c-0.4,0.4-1,0.6-1.6,0.8
				C908.3,2830.9,907.7,2831,907,2831z M911.1,2830.8v-9.3c0-0.7-0.2-1.2-0.7-1.6s-1.1-0.6-1.9-0.6c-0.5,0-1.1,0.1-1.6,0.3
				s-1,0.4-1.4,0.8l-2.4-2.4c0.6-0.7,1.4-1.2,2.3-1.6s2-0.6,3.2-0.6c1.9,0,3.4,0.5,4.5,1.4c1.1,1,1.6,2.3,1.6,4v9.4H911.1z"/>
			<path class="st2" d="M918.4,2830.8v-14.7h4.2v14.7H918.4z M926.7,2820.2c-0.2-0.2-0.4-0.3-0.7-0.4c-0.3-0.1-0.6-0.1-1-0.1
				c-0.8,0-1.4,0.3-1.8,0.8c-0.4,0.5-0.6,1.2-0.6,2.1l-0.3-3.8c0.4-0.9,0.9-1.5,1.6-2c0.6-0.5,1.4-0.7,2.1-0.7
				c0.6,0,1.2,0.1,1.7,0.3c0.5,0.2,0.9,0.5,1.3,0.9L926.7,2820.2z"/>
			<path class="st2" d="M936.4,2831c-1.3,0-2.6-0.2-3.8-0.5c-1.2-0.4-2.2-0.8-3.1-1.5l2.4-3c0.7,0.5,1.4,0.8,2.2,1
				c0.8,0.2,1.5,0.4,2.2,0.4c0.9,0,1.6-0.1,2.1-0.3s0.8-0.5,0.8-0.8c0-0.4-0.2-0.7-0.5-0.9c-0.3-0.2-0.8-0.3-1.4-0.3
				c-0.6-0.1-1.1-0.1-1.8-0.2c-0.6-0.1-1.3-0.2-1.9-0.3c-0.6-0.1-1.2-0.3-1.7-0.6c-0.5-0.3-0.9-0.7-1.2-1.2s-0.5-1.3-0.5-2.2
				c0-1.5,0.5-2.6,1.6-3.4c1-0.8,2.5-1.2,4.4-1.2c1.1,0,2.2,0.2,3.3,0.5c1.1,0.3,2.1,0.8,2.9,1.4l-2.3,2.8c-0.6-0.4-1.3-0.6-2-0.8
				s-1.4-0.3-2-0.3c-0.8,0-1.4,0.1-1.8,0.3s-0.7,0.4-0.7,0.8c0,0.3,0.2,0.5,0.5,0.6s0.7,0.2,1.2,0.3s1,0.1,1.6,0.2
				c0.7,0.1,1.3,0.2,2,0.3c0.7,0.1,1.3,0.3,1.8,0.6c0.6,0.3,1,0.7,1.3,1.3c0.3,0.6,0.5,1.4,0.5,2.4c0,1.5-0.5,2.7-1.6,3.6
				C940,2830.6,938.4,2831,936.4,2831z"/>
			<path class="st2" d="M959.5,2831c-2,0-3.6-0.6-4.7-1.7c-1.1-1.1-1.7-2.7-1.7-4.7v-2.4c0-2,0.6-3.6,1.7-4.7s2.7-1.7,4.7-1.7
				s3.6,0.6,4.7,1.7s1.7,2.7,1.7,4.7v2.4c0,2-0.6,3.6-1.7,4.7C963.1,2830.5,961.6,2831,959.5,2831z M959.5,2827.3
				c0.8,0,1.4-0.2,1.8-0.7s0.7-1.1,0.7-1.9v-2.4c0-0.8-0.2-1.5-0.7-1.9s-1-0.7-1.8-0.7c-0.8,0-1.4,0.2-1.8,0.7
				c-0.4,0.5-0.6,1.1-0.6,1.9v2.4c0,0.8,0.2,1.5,0.6,1.9C958.1,2827.1,958.7,2827.3,959.5,2827.3z"/>
			<path class="st2" d="M968.3,2819.4v-3.3h7.9v3.3H968.3z M969.8,2830.8v-16.7c0-1.3,0.3-2.3,0.9-2.9s1.5-1,2.8-1h2.7v3.5h-1.6
				c-0.3,0-0.5,0.1-0.6,0.3c-0.1,0.2-0.2,0.5-0.2,0.8v16H969.8z"/>
			<path class="st2" d="M986.7,2830.8v-20.6h3.9v20.6H986.7z M988.1,2814v-3.7h12.4v3.7H988.1z M988.1,2822.5v-3.7h10.8v3.7H988.1z
				 M988.1,2830.8v-3.7h12.4v3.7H988.1z"/>
			<path class="st2" d="M1002.3,2830.8l5.2-8.1l2.3,2.7l-3.4,5.5H1002.3z M1011.8,2830.8l-3.6-6.1l-5.7-8.6h4.3l3.5,5.9l5.8,8.8
				H1011.8z M1011.2,2824l-2.3-2.7l2.7-5.2h4.3L1011.2,2824z"/>
			<path class="st2" d="M1018.7,2836.8v-20.7h3.9v20.7H1018.7z M1026,2831c-0.9,0-1.6-0.2-2.2-0.7c-0.6-0.4-1.1-1.1-1.4-1.9l0.2-3.4
				c0,0.5,0.1,0.9,0.3,1.2s0.4,0.6,0.7,0.8c0.3,0.2,0.7,0.3,1.2,0.3c0.7,0,1.3-0.2,1.7-0.7s0.6-1.2,0.6-2v-2.3
				c0-0.9-0.2-1.6-0.6-2.1c-0.4-0.5-1-0.7-1.7-0.7c-0.5,0-0.9,0.1-1.2,0.3c-0.3,0.2-0.6,0.5-0.7,0.8c-0.2,0.3-0.3,0.8-0.3,1.3
				l-0.3-3.3c0.4-0.9,0.9-1.5,1.6-2c0.6-0.5,1.4-0.7,2.1-0.7c1.6,0,2.8,0.6,3.7,1.7c0.9,1.1,1.3,2.7,1.3,4.7v2.4
				c0,2-0.4,3.6-1.3,4.7C1028.8,2830.5,1027.6,2831,1026,2831z"/>
			<path class="st2" d="M1040.8,2831c-2.1,0-3.8-0.6-5-1.7c-1.2-1.1-1.8-2.8-1.8-4.9v-1.7c0-2.2,0.6-3.9,1.7-5.1
				c1.1-1.2,2.7-1.8,4.8-1.8c1.9,0,3.4,0.7,4.5,2.1c1.1,1.4,1.6,3.4,1.6,6v1h-10.1v-2.6h6.5l0-0.3c-0.1-0.8-0.4-1.5-0.8-2
				c-0.4-0.5-1-0.7-1.7-0.7c-0.9,0-1.7,0.3-2.2,0.8c-0.5,0.6-0.8,1.3-0.8,2.4v1.9c0,1,0.3,1.8,0.8,2.3c0.6,0.5,1.3,0.8,2.4,0.8
				c0.5,0,1-0.1,1.5-0.3c0.5-0.2,1-0.4,1.4-0.8l2.5,2.3c-0.8,0.7-1.6,1.2-2.6,1.6C1042.7,2830.8,1041.8,2831,1040.8,2831z"/>
			<path class="st2" d="M1050,2830.8v-14.7h4.2v14.7H1050z M1058.3,2820.2c-0.2-0.2-0.4-0.3-0.7-0.4c-0.3-0.1-0.6-0.1-1-0.1
				c-0.8,0-1.4,0.3-1.8,0.8s-0.6,1.2-0.6,2.1l-0.3-3.8c0.4-0.9,0.9-1.5,1.6-2c0.6-0.5,1.4-0.7,2.1-0.7c0.6,0,1.2,0.1,1.7,0.3
				c0.5,0.2,0.9,0.5,1.3,0.9L1058.3,2820.2z"/>
			<path class="st2" d="M1062.2,2814.1v-3.9h3.9v3.9H1062.2z M1062.2,2830.8v-14.7h3.9v14.7H1062.2z"/>
			<path class="st2" d="M1076,2831c-2.1,0-3.8-0.6-5-1.7c-1.2-1.1-1.8-2.8-1.8-4.9v-1.7c0-2.2,0.6-3.9,1.7-5.1
				c1.1-1.2,2.7-1.8,4.8-1.8c1.9,0,3.4,0.7,4.5,2.1c1.1,1.4,1.6,3.4,1.6,6v1h-10.1v-2.6h6.5l0-0.3c-0.1-0.8-0.4-1.5-0.8-2
				c-0.4-0.5-1-0.7-1.7-0.7c-0.9,0-1.7,0.3-2.2,0.8c-0.5,0.6-0.8,1.3-0.8,2.4v1.9c0,1,0.3,1.8,0.8,2.3c0.6,0.5,1.3,0.8,2.4,0.8
				c0.5,0,1-0.1,1.5-0.3c0.5-0.2,1-0.4,1.4-0.8l2.5,2.3c-0.8,0.7-1.6,1.2-2.6,1.6C1077.9,2830.8,1077,2831,1076,2831z"/>
			<path class="st2" d="M1085.2,2830.8v-14.7h3.9v14.7H1085.2z M1093.7,2830.8v-8.9c0-0.7-0.2-1.3-0.6-1.7c-0.4-0.4-1-0.6-1.7-0.6
				c-0.7,0-1.3,0.2-1.7,0.6c-0.4,0.4-0.6,1-0.6,1.7l-0.3-3.3c0.4-0.9,0.9-1.6,1.5-2.1c0.6-0.5,1.4-0.7,2.4-0.7
				c1.5,0,2.7,0.5,3.6,1.6c0.8,1,1.3,2.5,1.3,4.4v8.9H1093.7z"/>
			<path class="st2" d="M1107.7,2831c-2.1,0-3.7-0.6-4.9-1.8s-1.7-2.9-1.7-5v-1.6c0-2.1,0.6-3.8,1.7-5c1.2-1.2,2.8-1.8,4.9-1.8
				c1.2,0,2.3,0.2,3.3,0.6c1,0.4,1.8,1,2.3,1.7l-2.5,2.4c-0.3-0.3-0.8-0.6-1.3-0.8c-0.5-0.2-1-0.3-1.5-0.3c-1,0-1.7,0.3-2.3,0.8
				c-0.5,0.5-0.8,1.3-0.8,2.2v1.6c0,1,0.3,1.7,0.8,2.3s1.3,0.8,2.3,0.8c0.5,0,1-0.1,1.5-0.3s0.9-0.5,1.3-0.8l2.5,2.6
				c-0.6,0.7-1.4,1.3-2.3,1.7C1110,2830.8,1108.9,2831,1107.7,2831z"/>
			<path class="st2" d="M1122.2,2831c-2.1,0-3.8-0.6-5-1.7c-1.2-1.1-1.8-2.8-1.8-4.9v-1.7c0-2.2,0.6-3.9,1.7-5.1
				c1.1-1.2,2.7-1.8,4.8-1.8c1.9,0,3.4,0.7,4.5,2.1c1.1,1.4,1.6,3.4,1.6,6v1H1118v-2.6h6.5l0-0.3c-0.1-0.8-0.4-1.5-0.8-2
				c-0.4-0.5-1-0.7-1.7-0.7c-0.9,0-1.7,0.3-2.2,0.8c-0.5,0.6-0.8,1.3-0.8,2.4v1.9c0,1,0.3,1.8,0.8,2.3c0.6,0.5,1.3,0.8,2.4,0.8
				c0.5,0,1-0.1,1.5-0.3c0.5-0.2,1-0.4,1.4-0.8l2.5,2.3c-0.8,0.7-1.6,1.2-2.6,1.6C1124.1,2830.8,1123.2,2831,1122.2,2831z"/>
		</g>
	</g>
</g>
</svg>
