<?xml version="1.0" encoding="utf-8"?>
<!-- Generator: Adobe Illustrator 26.1.0, SVG Export Plug-In . SVG Version: 6.00 Build 0)  -->
<svg version="1.1" id="Calque_1" xmlns="http://www.w3.org/2000/svg" xmlns:xlink="http://www.w3.org/1999/xlink" x="0px" y="0px"
	 viewBox="0 0 350 326.3" style="enable-background:new 0 0 350 326.3;" xml:space="preserve">
<style type="text/css">
	.st0{fill:#168DFF;}
	.st1{enable-background:new    ;}
	.st2{fill:#FFF9E0;}
	.st3{fill:none;}
</style>
<g id="Groupe_71" transform="translate(-832 -2578.612)">
	<g id="Groupe_8" transform="translate(1065 5123.873)">
		<g id="Groupe_6" transform="translate(0 0)">
			<path id="Tracé_137" class="st0" d="M-190.5-2486.6l6.9-47.8H44.7l7.1,47.8h12l-9.6-58.7h-247.3l-9.4,58.7H-190.5z"/>
			<path id="Tracé_138" class="st0" d="M74.3-2335.6l5.1,34l-148.3,69.7l-148.5-69.7l4.9-34l-14.6,3l-5.9,37l164.2,76.6L95-2295.6
				l-6.1-37L74.3-2335.6z"/>
		</g>
		<path id="Tracé_139" class="st0" d="M-132.1-2280.7l63,27.6l62.9-27.6"/>
	</g>
	<g class="st1">
		<path class="st0" d="M970,2631.6c0-0.4-0.2-0.6-0.7-0.6h-2.7c-2.9,0-3.8-1.4-3.8-3.5v-3.7c0-2.1,1.1-3.5,4.1-3.5h3.8
			c3,0,4.1,1.4,4.1,3.5v2.2h-4.9v-1.5c0-0.4-0.2-0.6-0.7-0.6h-0.8c-0.5,0-0.7,0.2-0.7,0.6v2.7c0,0.4,0.2,0.6,0.7,0.6h2.6
			c2.9,0,3.8,1.3,3.8,3.4v3.7c0,2.1-1.1,3.5-4.1,3.5h-3.8c-3,0-4.1-1.4-4.1-3.5v-2.2h4.9v1.5c0,0.4,0.2,0.6,0.7,0.6h0.8
			c0.5,0,0.7-0.2,0.7-0.6L970,2631.6L970,2631.6z"/>
		<path class="st0" d="M987.7,2623.8h-3.5v14.5h-4.9v-14.5h-3.4v-3.5h11.8V2623.8z"/>
		<path class="st0" d="M997.6,2635.6h-4.3l-0.6,2.7h-4.8l4.6-18h6l4.6,18h-4.9L997.6,2635.6z M996.8,2632.2l-1.4-6.5l-1.4,6.5H996.8
			z"/>
		<path class="st0" d="M1015,2623.8h-3.5v14.5h-4.9v-14.5h-3.4v-3.5h11.8V2623.8z"/>
		<path class="st0" d="M1023.2,2631.6c0-0.4-0.2-0.6-0.7-0.6h-2.7c-2.9,0-3.8-1.4-3.8-3.5v-3.7c0-2.1,1.1-3.5,4.1-3.5h3.8
			c3,0,4.1,1.4,4.1,3.5v2.2h-4.9v-1.5c0-0.4-0.2-0.6-0.7-0.6h-0.8c-0.5,0-0.7,0.2-0.7,0.6v2.7c0,0.4,0.2,0.6,0.7,0.6h2.6
			c2.9,0,3.8,1.3,3.8,3.4v3.7c0,2.1-1.1,3.5-4.1,3.5h-3.8c-3,0-4.1-1.4-4.1-3.5v-2.2h4.9v1.5c0,0.4,0.2,0.6,0.7,0.6h0.8
			c0.5,0,0.7-0.2,0.7-0.6L1023.2,2631.6L1023.2,2631.6z"/>
	</g>
	<g>
		<g>
			<path class="st2" d="M873.5,2715.5h54.9v16.4h-54.9V2715.5z M909.5,2697.5v52.3h-17v-52.3H909.5z"/>
			<path class="st2" d="M969.1,2673.2v93.7h-17.7v-73l-11.4,4.3v-18.8l14-6.3H969.1z"/>
			<path class="st2" d="M1015.8,2767.8c-9.3,0-16.3-2.4-21-7.2c-4.7-4.8-7-11.3-7-19.4v-42.6c0-8.3,2.4-14.8,7.1-19.5
				c4.7-4.7,11.7-7.1,20.9-7.1c9.3,0,16.3,2.4,21,7.1s7.1,11.2,7.1,19.6v42.6c0,8.3-2.4,14.8-7.1,19.5
				C1032.1,2765.5,1025.1,2767.8,1015.8,2767.8z M1015.8,2750.8c3.7,0,6.3-1.3,8-3.8s2.4-6,2.4-10.3v-33.6c0-4.4-0.8-7.9-2.4-10.4
				c-1.6-2.5-4.3-3.7-8-3.7c-3.7,0-6.3,1.2-7.9,3.7c-1.6,2.5-2.4,6-2.4,10.4v33.6c0,4.4,0.8,7.8,2.4,10.3
				C1009.6,2749.6,1012.2,2750.8,1015.8,2750.8z"/>
			<path class="st2" d="M1088.7,2767.8c-9.3,0-16.3-2.4-21-7.2c-4.7-4.8-7-11.3-7-19.4v-42.6c0-8.3,2.4-14.8,7.1-19.5
				c4.7-4.7,11.7-7.1,20.9-7.1c9.3,0,16.3,2.4,21,7.1s7.1,11.2,7.1,19.6v42.6c0,8.3-2.4,14.8-7.1,19.5
				C1104.9,2765.5,1097.9,2767.8,1088.7,2767.8z M1088.7,2750.8c3.7,0,6.3-1.3,8-3.8s2.4-6,2.4-10.3v-33.6c0-4.4-0.8-7.9-2.4-10.4
				c-1.6-2.5-4.3-3.7-8-3.7c-3.7,0-6.3,1.2-7.9,3.7c-1.6,2.5-2.4,6-2.4,10.4v33.6c0,4.4,0.8,7.8,2.4,10.3
				C1082.4,2749.6,1085,2750.8,1088.7,2750.8z"/>
		</g>
	</g>
	<rect x="898" y="2804.4" class="st3" width="178.8" height="26.4"/>
	<g>
		<g>
			<path class="st2" d="M888,2819.4v-3.3h7.2v3.3H888z M893.3,2830.9c-1.3,0-2.3-0.3-2.8-1c-0.6-0.7-0.9-1.6-0.9-2.9v-15.2h3.9v14.2
				c0,0.3,0.1,0.6,0.2,0.8s0.3,0.3,0.6,0.3h1v3.7H893.3z"/>
			<path class="st2" d="M898.6,2830.8v-14.7h4.2v14.7H898.6z M906.9,2820.2c-0.2-0.2-0.4-0.3-0.7-0.4c-0.3-0.1-0.6-0.1-1-0.1
				c-0.8,0-1.4,0.3-1.8,0.8c-0.4,0.5-0.6,1.2-0.6,2.1l-0.3-3.8c0.4-0.9,0.9-1.5,1.6-2c0.6-0.5,1.4-0.7,2.1-0.7
				c0.6,0,1.2,0.1,1.7,0.3c0.5,0.2,0.9,0.5,1.3,0.9L906.9,2820.2z"/>
			<path class="st2" d="M915,2831c-1.6,0-2.7-0.4-3.5-1.1c-0.8-0.7-1.2-1.9-1.2-3.4c0-1.5,0.4-2.6,1.3-3.3c0.9-0.7,2.2-1.1,3.9-1.1
				h3.7l0.2,3h-3.9c-0.6,0-1,0.1-1.3,0.3c-0.3,0.2-0.4,0.6-0.4,1.1c0,0.5,0.2,0.8,0.6,1.1c0.4,0.2,0.9,0.3,1.7,0.3
				c1,0,1.8-0.1,2.3-0.4c0.5-0.2,0.8-0.6,0.8-1.1l0.3,2.1c-0.1,0.6-0.3,1-0.8,1.4c-0.4,0.4-1,0.6-1.6,0.8
				C916.4,2830.9,915.7,2831,915,2831z M919.1,2830.8v-9.3c0-0.7-0.2-1.2-0.7-1.6s-1.1-0.6-1.9-0.6c-0.5,0-1.1,0.1-1.6,0.3
				s-1,0.4-1.4,0.8l-2.4-2.4c0.6-0.7,1.4-1.2,2.3-1.6s2-0.6,3.2-0.6c1.9,0,3.4,0.5,4.5,1.4c1.1,1,1.6,2.3,1.6,4v9.4H919.1z"/>
			<path class="st2" d="M926.2,2814.1v-3.9h3.9v3.9H926.2z M926.2,2830.8v-14.7h3.9v14.7H926.2z"/>
			<path class="st2" d="M933.7,2830.8v-14.7h3.9v14.7H933.7z M942.2,2830.8v-8.9c0-0.7-0.2-1.3-0.6-1.7c-0.4-0.4-1-0.6-1.7-0.6
				c-0.7,0-1.3,0.2-1.7,0.6c-0.4,0.4-0.6,1-0.6,1.7l-0.3-3.3c0.4-0.9,0.9-1.6,1.6-2.1c0.6-0.5,1.4-0.7,2.4-0.7
				c1.5,0,2.7,0.5,3.6,1.6c0.8,1,1.3,2.5,1.3,4.4v8.9H942.2z"/>
			<path class="st2" d="M956.2,2831c-2.1,0-3.8-0.6-5-1.7c-1.2-1.1-1.8-2.8-1.8-4.9v-1.7c0-2.2,0.6-3.9,1.7-5.1
				c1.1-1.2,2.7-1.8,4.8-1.8c1.9,0,3.4,0.7,4.5,2.1c1.1,1.4,1.6,3.4,1.6,6v1H952v-2.6h6.5l0-0.3c-0.1-0.8-0.4-1.5-0.8-2
				c-0.4-0.5-1-0.7-1.7-0.7c-0.9,0-1.7,0.3-2.2,0.8c-0.5,0.6-0.8,1.3-0.8,2.4v1.9c0,1,0.3,1.8,0.8,2.3c0.6,0.5,1.3,0.8,2.4,0.8
				c0.5,0,1-0.1,1.5-0.3c0.5-0.2,1-0.4,1.4-0.8l2.5,2.3c-0.8,0.7-1.6,1.2-2.6,1.6C958.2,2830.8,957.2,2831,956.2,2831z"/>
			<path class="st2" d="M970,2831c-1.6,0-2.8-0.6-3.6-1.7c-0.9-1.1-1.3-2.7-1.3-4.7v-2.4c0-2,0.4-3.6,1.3-4.7
				c0.9-1.1,2.1-1.7,3.6-1.7c0.8,0,1.5,0.2,2.1,0.7c0.6,0.5,1.2,1.1,1.6,2l-0.3,3.3c0-0.5-0.1-0.9-0.3-1.3c-0.2-0.3-0.4-0.6-0.7-0.8
				c-0.3-0.2-0.7-0.3-1.2-0.3c-0.7,0-1.3,0.2-1.7,0.7c-0.4,0.5-0.6,1.2-0.6,2.1v2.3c0,0.9,0.2,1.6,0.6,2c0.4,0.5,1,0.7,1.7,0.7
				c0.5,0,0.9-0.1,1.2-0.3c0.3-0.2,0.6-0.4,0.7-0.8s0.3-0.8,0.3-1.2l0.2,3.4c-0.3,0.8-0.8,1.4-1.4,1.9
				C971.6,2830.8,970.8,2831,970,2831z M973.4,2830.8v-20.6h3.9v20.6H973.4z"/>
			<path class="st2" d="M993.4,2831c-1.6,0-2.8-0.6-3.6-1.7c-0.9-1.1-1.3-2.7-1.3-4.7v-2.4c0-2,0.4-3.6,1.3-4.7
				c0.9-1.1,2.1-1.7,3.6-1.7c0.8,0,1.5,0.2,2.1,0.7c0.6,0.5,1.2,1.1,1.6,2l-0.3,3.3c0-0.5-0.1-0.9-0.3-1.3c-0.2-0.3-0.4-0.6-0.7-0.8
				c-0.3-0.2-0.7-0.3-1.2-0.3c-0.7,0-1.3,0.2-1.7,0.7c-0.4,0.5-0.6,1.2-0.6,2.1v2.3c0,0.9,0.2,1.6,0.6,2c0.4,0.5,1,0.7,1.7,0.7
				c0.5,0,0.9-0.1,1.2-0.3c0.3-0.2,0.6-0.4,0.7-0.8s0.3-0.8,0.3-1.2l0.2,3.4c-0.3,0.8-0.8,1.4-1.4,1.9
				C995,2830.8,994.3,2831,993.4,2831z M996.8,2830.8v-20.6h3.9v20.6H996.8z"/>
			<path class="st2" d="M1010.8,2831c-2.1,0-3.8-0.6-5-1.7c-1.2-1.1-1.8-2.8-1.8-4.9v-1.7c0-2.2,0.6-3.9,1.7-5.1
				c1.1-1.2,2.7-1.8,4.8-1.8c1.9,0,3.4,0.7,4.5,2.1c1.1,1.4,1.6,3.4,1.6,6v1h-10.1v-2.6h6.5l0-0.3c-0.1-0.8-0.4-1.5-0.8-2
				c-0.4-0.5-1-0.7-1.7-0.7c-0.9,0-1.7,0.3-2.2,0.8c-0.5,0.6-0.8,1.3-0.8,2.4v1.9c0,1,0.3,1.8,0.8,2.3c0.6,0.5,1.3,0.8,2.4,0.8
				c0.5,0,1-0.1,1.5-0.3c0.5-0.2,1-0.4,1.4-0.8l2.5,2.3c-0.8,0.7-1.6,1.2-2.6,1.6C1012.8,2830.8,1011.8,2831,1010.8,2831z"/>
			<path class="st2" d="M1023.9,2810.2v15.7c0,0.3,0.1,0.6,0.3,0.8s0.5,0.3,0.9,0.3h0.7v3.7h-2c-1.2,0-2.1-0.3-2.7-1s-1-1.6-1-2.9
				v-16.7H1023.9z"/>
			<path class="st2" d="M1034.8,2831c-2.1,0-3.8-0.6-5-1.7c-1.2-1.1-1.8-2.8-1.8-4.9v-1.7c0-2.2,0.6-3.9,1.7-5.1
				c1.1-1.2,2.7-1.8,4.8-1.8c1.9,0,3.4,0.7,4.5,2.1c1.1,1.4,1.6,3.4,1.6,6v1h-10.1v-2.6h6.5l0-0.3c-0.1-0.8-0.4-1.5-0.8-2
				c-0.4-0.5-1-0.7-1.7-0.7c-0.9,0-1.7,0.3-2.2,0.8c-0.5,0.6-0.8,1.3-0.8,2.4v1.9c0,1,0.3,1.8,0.8,2.3c0.6,0.5,1.3,0.8,2.4,0.8
				c0.5,0,1-0.1,1.5-0.3c0.5-0.2,1-0.4,1.4-0.8l2.5,2.3c-0.8,0.7-1.6,1.2-2.6,1.6C1036.7,2830.8,1035.7,2831,1034.8,2831z"/>
			<path class="st2" d="M1048.5,2831c-1.6,0-2.8-0.6-3.6-1.7c-0.9-1.1-1.3-2.7-1.3-4.7v-2.4c0-2,0.4-3.6,1.3-4.7
				c0.9-1.1,2.1-1.7,3.6-1.7c0.8,0,1.5,0.2,2.1,0.7c0.6,0.5,1.2,1.1,1.6,2l-0.3,3.3c0-0.5-0.1-0.9-0.3-1.3c-0.2-0.3-0.4-0.6-0.7-0.8
				c-0.3-0.2-0.7-0.3-1.2-0.3c-0.7,0-1.3,0.2-1.7,0.7c-0.4,0.5-0.6,1.2-0.6,2.1v2.3c0,0.9,0.2,1.6,0.6,2s1,0.7,1.7,0.7
				c0.5,0,0.9-0.1,1.2-0.3c0.3-0.2,0.6-0.4,0.7-0.8s0.3-0.8,0.3-1.2l0.2,3.4c-0.3,0.8-0.8,1.4-1.4,1.9
				C1050.1,2830.8,1049.4,2831,1048.5,2831z M1049.2,2836.8c-1.2,0-2.2-0.2-3.1-0.6c-0.9-0.4-1.6-1-2.1-1.7l2.6-2.4
				c0.3,0.3,0.7,0.6,1.2,0.8c0.5,0.2,0.9,0.3,1.4,0.3c0.8,0,1.4-0.2,2-0.7c0.5-0.4,0.8-1.1,0.8-1.9v-14.5h3.9v14.3
				c0,2-0.6,3.6-1.7,4.7C1053,2836.2,1051.3,2836.8,1049.2,2836.8z"/>
			<path class="st2" d="M1063.6,2831c-1.6,0-2.7-0.4-3.5-1.1c-0.8-0.7-1.2-1.9-1.2-3.4c0-1.5,0.4-2.6,1.3-3.3
				c0.9-0.7,2.2-1.1,3.9-1.1h3.7l0.2,3h-3.9c-0.6,0-1,0.1-1.3,0.3c-0.3,0.2-0.4,0.6-0.4,1.1c0,0.5,0.2,0.8,0.6,1.1
				c0.4,0.2,0.9,0.3,1.7,0.3c1,0,1.8-0.1,2.3-0.4c0.5-0.2,0.8-0.6,0.8-1.1l0.3,2.1c-0.1,0.6-0.3,1-0.8,1.4c-0.4,0.4-1,0.6-1.6,0.8
				C1065,2830.9,1064.3,2831,1063.6,2831z M1067.7,2830.8v-9.3c0-0.7-0.2-1.2-0.7-1.6s-1.1-0.6-1.9-0.6c-0.5,0-1.1,0.1-1.6,0.3
				s-1,0.4-1.4,0.8l-2.4-2.4c0.6-0.7,1.4-1.2,2.3-1.6s2-0.6,3.2-0.6c1.9,0,3.4,0.5,4.5,1.4c1.1,1,1.6,2.3,1.6,4v9.4H1067.7z"/>
			<path class="st2" d="M1073.9,2819.4v-3.3h7.2v3.3H1073.9z M1079.2,2830.9c-1.3,0-2.3-0.3-2.8-1c-0.6-0.7-0.9-1.6-0.9-2.9v-15.2
				h3.9v14.2c0,0.3,0.1,0.6,0.2,0.8s0.3,0.3,0.6,0.3h1v3.7H1079.2z"/>
			<path class="st2" d="M1090.8,2831c-2.1,0-3.8-0.6-5-1.7c-1.2-1.1-1.8-2.8-1.8-4.9v-1.7c0-2.2,0.6-3.9,1.7-5.1
				c1.1-1.2,2.7-1.8,4.8-1.8c1.9,0,3.4,0.7,4.5,2.1c1.1,1.4,1.6,3.4,1.6,6v1h-10.1v-2.6h6.5l0-0.3c-0.1-0.8-0.4-1.5-0.8-2
				c-0.4-0.5-1-0.7-1.7-0.7c-0.9,0-1.7,0.3-2.2,0.8c-0.5,0.6-0.8,1.3-0.8,2.4v1.9c0,1,0.3,1.8,0.8,2.3c0.6,0.5,1.3,0.8,2.4,0.8
				c0.5,0,1-0.1,1.5-0.3c0.5-0.2,1-0.4,1.4-0.8l2.5,2.3c-0.8,0.7-1.6,1.2-2.6,1.6C1092.8,2830.8,1091.8,2831,1090.8,2831z"/>
			<path class="st2" d="M1105.7,2831c-1.3,0-2.6-0.2-3.8-0.5c-1.2-0.4-2.2-0.8-3.1-1.5l2.4-3c0.7,0.5,1.4,0.8,2.2,1
				c0.8,0.2,1.5,0.4,2.2,0.4c0.9,0,1.6-0.1,2.1-0.3c0.5-0.2,0.8-0.5,0.8-0.8c0-0.4-0.2-0.7-0.5-0.9c-0.3-0.2-0.8-0.3-1.4-0.3
				c-0.6-0.1-1.1-0.1-1.8-0.2c-0.6-0.1-1.3-0.2-1.9-0.3c-0.6-0.1-1.2-0.3-1.7-0.6c-0.5-0.3-0.9-0.7-1.2-1.2
				c-0.3-0.5-0.5-1.3-0.5-2.2c0-1.5,0.5-2.6,1.6-3.4c1-0.8,2.5-1.2,4.4-1.2c1.1,0,2.2,0.2,3.3,0.5c1.1,0.3,2.1,0.8,2.9,1.4l-2.3,2.8
				c-0.6-0.4-1.3-0.6-2-0.8c-0.7-0.2-1.4-0.3-2-0.3c-0.8,0-1.4,0.1-1.8,0.3c-0.4,0.2-0.7,0.4-0.7,0.8c0,0.3,0.2,0.5,0.5,0.6
				c0.3,0.1,0.7,0.2,1.2,0.3c0.5,0.1,1,0.1,1.6,0.2c0.7,0.1,1.3,0.2,2,0.3c0.7,0.1,1.3,0.3,1.8,0.6c0.6,0.3,1,0.7,1.3,1.3
				c0.3,0.6,0.5,1.4,0.5,2.4c0,1.5-0.5,2.7-1.6,3.6C1109.3,2830.6,1107.7,2831,1105.7,2831z"/>
		</g>
	</g>
</g>
</svg>
