<?xml version="1.0" encoding="utf-8"?>
<!-- Generator: Adobe Illustrator 26.1.0, SVG Export Plug-In . SVG Version: 6.00 Build 0)  -->
<svg version="1.1" id="Calque_1" xmlns="http://www.w3.org/2000/svg" xmlns:xlink="http://www.w3.org/1999/xlink" x="0px" y="0px"
	 viewBox="0 0 350 326.3" style="enable-background:new 0 0 350 326.3;" xml:space="preserve">
<style type="text/css">
	.st0{fill:#168DFF;}
	.st1{enable-background:new    ;}
	.st2{fill:#FFF9E0;}
	.st3{fill:none;}
</style>
<g id="Groupe_71" transform="translate(-832 -2578.612)">
	<g id="Groupe_8" transform="translate(1065 5123.873)">
		<g id="Groupe_6" transform="translate(0 0)">
			<path id="Tracé_137" class="st0" d="M-190.5-2486.6l6.9-47.8H44.7l7.1,47.8h12l-9.6-58.7h-247.3l-9.4,58.7H-190.5z"/>
			<path id="Tracé_138" class="st0" d="M74.3-2335.6l5.1,34l-148.3,69.7l-148.5-69.7l4.9-34l-14.6,3l-5.9,37l164.2,76.6L95-2295.6
				l-6.1-37L74.3-2335.6z"/>
		</g>
		<path id="Tracé_139" class="st0" d="M-132.1-2280.7l63,27.6l62.9-27.6"/>
	</g>
	<g class="st1">
		<path class="st0" d="M970,2631.6c0-0.4-0.2-0.6-0.7-0.6h-2.7c-2.9,0-3.8-1.4-3.8-3.5v-3.7c0-2.1,1.1-3.5,4.1-3.5h3.8
			c3,0,4.1,1.4,4.1,3.5v2.2h-4.9v-1.5c0-0.4-0.2-0.6-0.7-0.6h-0.8c-0.5,0-0.7,0.2-0.7,0.6v2.7c0,0.4,0.2,0.6,0.7,0.6h2.6
			c2.9,0,3.8,1.3,3.8,3.4v3.7c0,2.1-1.1,3.5-4.1,3.5h-3.8c-3,0-4.1-1.4-4.1-3.5v-2.2h4.9v1.5c0,0.4,0.2,0.6,0.7,0.6h0.8
			c0.5,0,0.7-0.2,0.7-0.6L970,2631.6L970,2631.6z"/>
		<path class="st0" d="M987.7,2623.8h-3.5v14.5h-4.9v-14.5h-3.4v-3.5h11.8L987.7,2623.8L987.7,2623.8z"/>
		<path class="st0" d="M997.6,2635.6h-4.3l-0.6,2.7h-4.8l4.6-18h6l4.6,18h-4.9L997.6,2635.6z M996.8,2632.2l-1.4-6.5l-1.4,6.5H996.8
			z"/>
		<path class="st0" d="M1015,2623.8h-3.5v14.5h-4.9v-14.5h-3.4v-3.5h11.8L1015,2623.8L1015,2623.8z"/>
		<path class="st0" d="M1023.2,2631.6c0-0.4-0.2-0.6-0.7-0.6h-2.7c-2.9,0-3.8-1.4-3.8-3.5v-3.7c0-2.1,1.1-3.5,4.1-3.5h3.8
			c3,0,4.1,1.4,4.1,3.5v2.2h-4.9v-1.5c0-0.4-0.2-0.6-0.7-0.6h-0.8c-0.5,0-0.7,0.2-0.7,0.6v2.7c0,0.4,0.2,0.6,0.7,0.6h2.6
			c2.9,0,3.8,1.3,3.8,3.4v3.7c0,2.1-1.1,3.5-4.1,3.5h-3.8c-3,0-4.1-1.4-4.1-3.5v-2.2h4.9v1.5c0,0.4,0.2,0.6,0.7,0.6h0.8
			c0.5,0,0.7-0.2,0.7-0.6L1023.2,2631.6L1023.2,2631.6z"/>
	</g>
	<g>
		<g>
			<path class="st2" d="M857.6,2713.9h54.9v16.4h-54.9V2713.9z M893.6,2695.9v52.3h-17v-52.3H893.6z"/>
			<path class="st2" d="M955.4,2766.2c-7.5,0-13.8-2.4-18.9-7.3s-7.9-11.8-8.5-20.7v-0.1h17.7v0.1c0.3,3.4,1.4,6.1,3.2,8
				c1.8,1.9,4.1,2.9,6.9,2.9c3.1,0,5.5-1,7.2-3.1c1.7-2,2.5-4.9,2.5-8.5v-7.9c0-3.7-0.8-6.5-2.3-8.5c-1.5-2-3.7-3-6.4-3
				c-2.5,0-4.7,0.6-6.5,1.9c-1.8,1.3-3,3.1-3.7,5.4H930v-53.9h50.3v17h-32.7v16.6c1.4-1.3,3.2-2.4,5.5-3.1c2.3-0.7,4.6-1.1,6.8-1.1
				c7.3,0,13,2.5,17,7.5c4,5,6,12.1,6,21.2v7.9c0,9.2-2.4,16.2-7.2,21.2C971.1,2763.7,964.2,2766.2,955.4,2766.2z"/>
			<path class="st2" d="M1027.9,2766.2c-9.3,0-16.3-2.4-21-7.2c-4.7-4.8-7-11.3-7-19.4V2697c0-8.3,2.4-14.8,7.1-19.5
				c4.7-4.7,11.7-7.1,20.9-7.1c9.3,0,16.3,2.4,21,7.1s7.1,11.2,7.1,19.6v42.6c0,8.3-2.4,14.8-7.1,19.5
				C1044.1,2763.9,1037.1,2766.2,1027.9,2766.2z M1027.9,2749.2c3.7,0,6.3-1.3,8-3.8s2.4-6,2.4-10.3v-33.6c0-4.4-0.8-7.9-2.4-10.4
				c-1.6-2.5-4.3-3.7-8-3.7c-3.7,0-6.3,1.2-7.9,3.7c-1.6,2.5-2.4,6-2.4,10.4v33.6c0,4.4,0.8,7.8,2.4,10.3
				C1021.6,2747.9,1024.2,2749.2,1027.9,2749.2z"/>
			<path class="st2" d="M1100.7,2766.2c-9.3,0-16.3-2.4-21-7.2c-4.7-4.8-7-11.3-7-19.4V2697c0-8.3,2.4-14.8,7.1-19.5
				c4.7-4.7,11.7-7.1,20.9-7.1c9.3,0,16.3,2.4,21,7.1s7.1,11.2,7.1,19.6v42.6c0,8.3-2.4,14.8-7.1,19.5
				C1116.9,2763.9,1110,2766.2,1100.7,2766.2z M1100.7,2749.2c3.7,0,6.3-1.3,8-3.8s2.4-6,2.4-10.3v-33.6c0-4.4-0.8-7.9-2.4-10.4
				c-1.6-2.5-4.3-3.7-8-3.7c-3.7,0-6.3,1.2-7.9,3.7c-1.6,2.5-2.4,6-2.4,10.4v33.6c0,4.4,0.8,7.8,2.4,10.3
				C1094.4,2747.9,1097.1,2749.2,1100.7,2749.2z"/>
		</g>
	</g>
	<rect x="898" y="2804.4" class="st3" width="178.8" height="26.4"/>
	<rect x="333" y="2685.6" class="st3" width="108" height="38"/>
	<g>
		<g>
			<path class="st2" d="M875.4,2812.8v-4h16.1v4H875.4z M881.4,2830.8v-20.2h4.1v20.2H881.4z"/>
			<path class="st2" d="M893.1,2830.8v-15.7h4.5v15.7H893.1z M901.9,2819.5c-0.2-0.2-0.4-0.4-0.7-0.5c-0.3-0.1-0.6-0.2-1-0.2
				c-0.8,0-1.5,0.3-1.9,0.8c-0.5,0.5-0.7,1.3-0.7,2.2l-0.3-4.1c0.4-0.9,1-1.7,1.7-2.2c0.7-0.5,1.5-0.8,2.3-0.8
				c0.7,0,1.2,0.1,1.8,0.3c0.5,0.2,1,0.5,1.4,0.9L901.9,2819.5z"/>
			<path class="st2" d="M910.6,2831c-1.7,0-2.9-0.4-3.8-1.2c-0.8-0.8-1.3-2-1.3-3.7c0-1.6,0.5-2.7,1.4-3.5c0.9-0.8,2.3-1.2,4.2-1.2
				h3.9l0.2,3.2h-4.1c-0.6,0-1.1,0.1-1.4,0.4s-0.5,0.6-0.5,1.1c0,0.5,0.2,0.9,0.6,1.1s1,0.4,1.8,0.4c1.1,0,1.9-0.1,2.5-0.4
				c0.5-0.3,0.8-0.6,0.8-1.2l0.3,2.3c-0.1,0.6-0.3,1.1-0.8,1.5c-0.5,0.4-1.1,0.7-1.7,0.9C912,2830.9,911.3,2831,910.6,2831z
				 M915,2830.8v-10c0-0.7-0.2-1.3-0.7-1.7s-1.2-0.6-2.1-0.6c-0.6,0-1.2,0.1-1.7,0.3c-0.6,0.2-1.1,0.5-1.5,0.8l-2.6-2.5
				c0.6-0.7,1.5-1.3,2.5-1.7c1-0.4,2.2-0.6,3.4-0.6c2.1,0,3.7,0.5,4.8,1.5s1.7,2.5,1.7,4.3v10.1H915z"/>
			<path class="st2" d="M922.6,2812.9v-4.1h4.1v4.1H922.6z M922.6,2830.8v-15.7h4.1v15.7H922.6z"/>
			<path class="st2" d="M930.6,2830.8v-15.7h4.1v15.7H930.6z M939.7,2830.8v-9.5c0-0.8-0.2-1.4-0.7-1.8c-0.4-0.4-1.1-0.6-1.9-0.6
				c-0.8,0-1.4,0.2-1.8,0.6c-0.4,0.4-0.6,1-0.6,1.8l-0.3-3.5c0.5-0.9,1-1.7,1.7-2.2c0.7-0.5,1.5-0.8,2.5-0.8c1.7,0,2.9,0.6,3.8,1.7
				s1.4,2.7,1.4,4.7v9.5H939.7z"/>
			<path class="st2" d="M954.6,2831c-2.3,0-4-0.6-5.3-1.8c-1.3-1.2-1.9-3-1.9-5.2v-1.8c0-2.3,0.6-4.2,1.8-5.4
				c1.2-1.3,2.9-1.9,5.1-1.9c2.1,0,3.7,0.8,4.8,2.3c1.1,1.5,1.7,3.7,1.7,6.5v1h-10.7v-2.8h7l0-0.4c-0.1-0.9-0.4-1.6-0.8-2.1
				c-0.5-0.5-1.1-0.7-1.8-0.7c-1,0-1.8,0.3-2.3,0.9c-0.5,0.6-0.8,1.4-0.8,2.5v2c0,1.1,0.3,1.9,0.9,2.5s1.4,0.9,2.5,0.9
				c0.6,0,1.1-0.1,1.6-0.3c0.5-0.2,1-0.5,1.5-0.8l2.7,2.4c-0.8,0.7-1.7,1.3-2.8,1.7C956.7,2830.8,955.7,2831,954.6,2831z"/>
			<path class="st2" d="M969.4,2831c-1.7,0-3-0.6-3.9-1.8c-0.9-1.2-1.4-2.9-1.4-5v-2.5c0-2.2,0.5-3.9,1.4-5.1
				c0.9-1.2,2.2-1.8,3.9-1.8c0.8,0,1.6,0.2,2.3,0.8c0.7,0.5,1.2,1.2,1.7,2.1l-0.3,3.5c0-0.5-0.1-1-0.3-1.4c-0.2-0.4-0.4-0.7-0.8-0.9
				c-0.3-0.2-0.8-0.3-1.3-0.3c-0.8,0-1.4,0.3-1.8,0.8c-0.4,0.5-0.6,1.3-0.6,2.2v2.5c0,0.9,0.2,1.7,0.6,2.2s1,0.8,1.8,0.8
				c0.5,0,0.9-0.1,1.3-0.3c0.3-0.2,0.6-0.5,0.8-0.8s0.3-0.8,0.3-1.3l0.2,3.6c-0.3,0.9-0.8,1.5-1.5,2
				C971.1,2830.8,970.3,2831,969.4,2831z M973,2830.8v-22h4.1v22H973z"/>
			<path class="st2" d="M999.5,2823.6l4.2-14.8h5.5v22h-3.8v-17.1l0.2,1l-4.2,13.7h-3.7l-4.2-13.4l0.2-1.3v17.1h-3.8v-22h5.5
				L999.5,2823.6z"/>
			<path class="st2" d="M1020.5,2831c-2.3,0-4-0.6-5.3-1.8c-1.3-1.2-1.9-3-1.9-5.2v-1.8c0-2.3,0.6-4.2,1.8-5.4
				c1.2-1.3,2.9-1.9,5.1-1.9c2.1,0,3.7,0.8,4.8,2.3c1.1,1.5,1.7,3.7,1.7,6.5v1H1016v-2.8h7l0-0.4c-0.1-0.9-0.4-1.6-0.8-2.1
				c-0.5-0.5-1.1-0.7-1.8-0.7c-1,0-1.8,0.3-2.3,0.9c-0.5,0.6-0.8,1.4-0.8,2.5v2c0,1.1,0.3,1.9,0.9,2.5s1.4,0.9,2.5,0.9
				c0.6,0,1.1-0.1,1.6-0.3c0.5-0.2,1-0.5,1.5-0.8l2.7,2.4c-0.8,0.7-1.7,1.3-2.8,1.7C1022.5,2830.8,1021.5,2831,1020.5,2831z"/>
			<path class="st2" d="M1030.3,2830.8v-15.7h4.1v15.7H1030.3z M1039.5,2830.8v-9.1c0-0.9-0.2-1.6-0.7-2.1c-0.4-0.5-1.1-0.8-1.9-0.8
				c-0.8,0-1.4,0.2-1.8,0.6c-0.4,0.4-0.6,1-0.6,1.8l-0.3-3.5c0.5-0.9,1-1.7,1.7-2.2s1.5-0.8,2.5-0.8c1.7,0,3,0.6,3.9,1.8
				c0.9,1.2,1.4,2.9,1.4,5.1v9.1H1039.5z M1048.7,2830.8v-9.1c0-0.9-0.2-1.6-0.7-2.1c-0.4-0.5-1.1-0.8-1.9-0.8
				c-0.8,0-1.4,0.2-1.8,0.7c-0.4,0.5-0.6,1.2-0.6,2l-0.8-3.6c0.5-1,1.1-1.8,1.9-2.3c0.8-0.5,1.7-0.8,2.6-0.8c1.7,0,3,0.6,4,1.8
				c0.9,1.2,1.4,2.9,1.4,5.1v9.1H1048.7z"/>
			<path class="st2" d="M1056.9,2830.8v-22h4.1v22H1056.9z M1064.7,2831c-0.9,0-1.7-0.2-2.4-0.7c-0.7-0.5-1.2-1.1-1.5-2l0.2-3.6
				c0,0.5,0.1,1,0.3,1.3s0.4,0.6,0.8,0.8c0.3,0.2,0.8,0.3,1.3,0.3c0.8,0,1.4-0.3,1.8-0.8c0.4-0.5,0.6-1.2,0.6-2.2v-2.5
				c0-1-0.2-1.7-0.6-2.2c-0.4-0.5-1-0.8-1.8-0.8c-0.5,0-0.9,0.1-1.3,0.3c-0.3,0.2-0.6,0.5-0.8,0.9c-0.2,0.4-0.3,0.8-0.3,1.4
				l-0.3-3.5c0.4-0.9,1-1.6,1.7-2.1c0.7-0.5,1.5-0.8,2.3-0.8c1.7,0,3,0.6,3.9,1.8c0.9,1.2,1.4,2.9,1.4,5.1v2.5c0,2.2-0.5,3.8-1.4,5
				C1067.7,2830.4,1066.4,2831,1064.7,2831z"/>
			<path class="st2" d="M1080.5,2831c-2.3,0-4-0.6-5.3-1.8c-1.3-1.2-1.9-3-1.9-5.2v-1.8c0-2.3,0.6-4.2,1.8-5.4
				c1.2-1.3,2.9-1.9,5.1-1.9c2.1,0,3.7,0.8,4.8,2.3c1.1,1.5,1.7,3.7,1.7,6.5v1H1076v-2.8h7l0-0.4c-0.1-0.9-0.4-1.6-0.8-2.1
				c-0.5-0.5-1.1-0.7-1.8-0.7c-1,0-1.8,0.3-2.3,0.9c-0.5,0.6-0.8,1.4-0.8,2.5v2c0,1.1,0.3,1.9,0.9,2.5s1.4,0.9,2.5,0.9
				c0.6,0,1.1-0.1,1.6-0.3c0.5-0.2,1-0.5,1.5-0.8l2.7,2.4c-0.8,0.7-1.7,1.3-2.8,1.7C1082.6,2830.8,1081.5,2831,1080.5,2831z"/>
			<path class="st2" d="M1090.4,2830.8v-15.7h4.5v15.7H1090.4z M1099.2,2819.5c-0.2-0.2-0.4-0.4-0.7-0.5c-0.3-0.1-0.6-0.2-1-0.2
				c-0.8,0-1.5,0.3-1.9,0.8c-0.5,0.5-0.7,1.3-0.7,2.2l-0.3-4.1c0.4-0.9,1-1.7,1.7-2.2c0.7-0.5,1.5-0.8,2.3-0.8
				c0.7,0,1.2,0.1,1.8,0.3c0.5,0.2,1,0.5,1.4,0.9L1099.2,2819.5z"/>
			<path class="st2" d="M1109.6,2831c-1.4,0-2.8-0.2-4-0.6c-1.3-0.4-2.4-0.9-3.3-1.6l2.6-3.2c0.8,0.5,1.5,0.9,2.4,1.1
				c0.8,0.3,1.6,0.4,2.4,0.4c1,0,1.7-0.1,2.3-0.3c0.5-0.2,0.8-0.5,0.8-0.9c0-0.5-0.2-0.8-0.6-1s-0.9-0.3-1.4-0.3
				c-0.6-0.1-1.2-0.1-1.9-0.2c-0.7-0.1-1.3-0.2-2-0.3c-0.7-0.1-1.3-0.3-1.8-0.6c-0.5-0.3-1-0.7-1.3-1.3c-0.3-0.6-0.5-1.4-0.5-2.4
				c0-1.6,0.6-2.8,1.7-3.7c1.1-0.9,2.7-1.3,4.8-1.3c1.2,0,2.4,0.2,3.5,0.5c1.2,0.4,2.2,0.9,3.1,1.5l-2.5,3c-0.7-0.4-1.4-0.7-2.1-0.9
				c-0.7-0.2-1.5-0.3-2.1-0.3c-0.8,0-1.5,0.1-2,0.3c-0.5,0.2-0.7,0.5-0.7,0.8c0,0.3,0.2,0.5,0.5,0.7s0.7,0.3,1.3,0.3
				c0.5,0.1,1.1,0.1,1.7,0.2c0.7,0.1,1.4,0.2,2.1,0.3c0.7,0.1,1.4,0.3,1.9,0.6c0.6,0.3,1.1,0.8,1.4,1.4s0.5,1.5,0.5,2.5
				c0,1.6-0.6,2.9-1.8,3.8C1113.4,2830.6,1111.8,2831,1109.6,2831z"/>
		</g>
	</g>
</g>
</svg>
